<svg height="937pt" viewBox="-31 0 937 937.03902" width="937pt" xmlns="http://www.w3.org/2000/svg" xmlns:xlink="http://www.w3.org/1999/xlink"><linearGradient id="a"><stop offset="0" stop-color="#fc5c7d"/><stop offset=".129" stop-color="#f35e85"/><stop offset=".343" stop-color="#d9659b"/><stop offset=".616" stop-color="#b070bf"/><stop offset=".934" stop-color="#777ff0"/><stop offset="1" stop-color="#6a82fb"/></linearGradient><linearGradient id="b" gradientTransform="matrix(.999958 0 0 -.999958 -31.21549 926.726828)" gradientUnits="userSpaceOnUse" x1="406.0501" x2="406.0501" xlink:href="#a" y1="922.3457" y2="-32.7936"/><linearGradient id="c" gradientTransform="matrix(.999958 0 0 -.999958 -31.21549 926.726828)" gradientUnits="userSpaceOnUse" x1="296.7289" x2="296.7289" xlink:href="#a" y1="922.3457" y2="-32.7936"/><linearGradient id="d" gradientTransform="matrix(.999958 0 0 -.999958 -31.21549 926.726828)" gradientUnits="userSpaceOnUse" x1="515.3713" x2="515.3713" xlink:href="#a" y1="922.3457" y2="-32.7936"/><linearGradient id="e" gradientTransform="matrix(.999958 0 0 -.999958 -31.21549 926.726828)" gradientUnits="userSpaceOnUse" x1="499.754" x2="499.754" xlink:href="#a" y1="922.3457" y2="-32.7936"/><linearGradient id="f" gradientTransform="matrix(.999958 0 0 -.999958 -31.21549 926.726828)" gradientUnits="userSpaceOnUse" x1="437.2848" x2="437.2848" xlink:href="#a" y1="922.3457" y2="-32.7936"/><linearGradient id="g" gradientTransform="matrix(.999958 0 0 -.999958 -31.21549 926.726828)" gradientUnits="userSpaceOnUse" x1="242.0684" x2="242.0684" xlink:href="#a" y1="922.3457" y2="-32.7936"/><linearGradient id="h" gradientTransform="matrix(.999958 0 0 -.999958 -31.21549 926.726828)" gradientUnits="userSpaceOnUse" x1="679.3531" x2="679.3531" xlink:href="#a" y1="922.3457" y2="-32.7936"/><linearGradient id="i" gradientTransform="matrix(.999958 0 0 -.999958 -31.21549 926.726828)" gradientUnits="userSpaceOnUse" x1="530.9886" x2="530.9886" xlink:href="#a" y1="922.3457" y2="-32.7936"/><linearGradient id="j" gradientTransform="matrix(.999958 0 0 -.999958 -31.21549 926.726828)" gradientUnits="userSpaceOnUse" x1="218.6424" x2="218.6424" xlink:href="#a" y1="922.3457" y2="-32.7936"/><linearGradient id="k" gradientTransform="matrix(.999958 0 0 -.999958 -31.21549 926.726828)" gradientUnits="userSpaceOnUse" x1="585.6492" x2="585.6492" xlink:href="#a" y1="922.3457" y2="-32.7936"/><path d="m246.574219 425.898438c-34.785157 8.65625-59.191407 39.910156-59.15625 75.753906v107.398437h31.234375v-107.398437c0-21.492188 14.628906-40.226563 35.480468-45.441406l77.632813-19.414063c6.949219-1.738281 11.820313-7.984375 11.820313-15.144531v-31.234375c.003906-5.921875-3.339844-11.332031-8.636719-13.980469-13.890625-6.871094-22.660157-21.054688-22.597657-36.558594v-90.011718c0-34.5 27.96875-62.46875 62.46875-62.46875s62.464844 27.96875 62.464844 62.46875v90.011718c.0625 15.503906-8.703125 29.6875-22.597656 36.558594-5.292969 2.648438-8.636719 8.058594-8.632812 13.980469v31.234375c0 7.160156 4.871093 13.40625 11.820312 15.144531l77.628906 19.414063c20.851563 5.214843 35.480469 23.949218 35.484375 45.441406v107.398437h31.234375v-107.398437c.035156-35.839844-24.363281-67.09375-59.140625-75.753906l-65.796875-16.445313v-10.152344c19.601563-13.382812 31.296875-35.609375 31.234375-59.34375v-90.089843c0-51.75-41.949219-93.699219-93.699219-93.699219s-93.699218 41.949219-93.699218 93.699219v90.011718c-.089844 23.761719 11.609375 46.023438 31.234375 59.421875v10.152344zm0 0" fill="url(#b)"/><path d="m249.886719 530.96875h31.230469v109.316406h-31.230469zm0 0" fill="url(#c)"/><path d="m468.519531 530.96875h31.230469v109.316406h-31.230469zm0 0" fill="url(#d)"/><path d="m124.949219 874.535156h593.433593c34.5 0 62.46875-27.96875 62.46875-62.46875v-124.933594h78.082032c8.625 0 15.617187-6.992187 15.617187-15.617187v-249.867187c0-34.5-27.96875-62.464844-62.464843-62.464844h-124.933594v-281.101563c0-8.621093-6.992188-15.613281-15.617188-15.613281h-593.433594c-8.625 0-15.617187 6.992188-15.617187 15.613281v733.984375c0 34.5 27.96875 62.46875 62.464844 62.46875zm718.367187-452.886718v234.25h-62.464844v-234.25c0-17.25 13.984376-31.234376 31.234376-31.234376 17.246093.003907 31.230468 13.984376 31.230468 31.234376zm-85.015625-31.230469c-5.621093 9.453125-8.617187 20.234375-8.683593 31.234375v390.414062c0 17.25-13.984376 31.234375-31.234376 31.234375-17.246093 0-31.230468-13.984375-31.230468-31.234375v-421.648437zm-664.582031-296.71875h562.199219v718.367187c-.015625 10.96875 2.875 21.746094 8.386719 31.234375h-539.355469c-17.246094 0-31.230469-13.984375-31.230469-31.234375zm0 0" fill="url(#e)"/><path d="m312.351562 687.132812h187.398438v31.234376h-187.398438zm0 0" fill="url(#f)"/><path d="m187.417969 749.601562h374.800781v31.230469h-374.800781zm0 0" fill="url(#b)"/><path d="m249.886719 687.132812h31.230469v31.234376h-31.230469zm0 0" fill="url(#c)"/><path d="m109.335938 937h312.332031v-31.234375h-312.332031c-43.105469-.050781-78.03125-34.980469-78.085938-78.082031v-109.316406h-31.2304688v109.316406c.0664063 60.34375 48.9687498 109.246094 109.3164068 109.316406zm0 0" fill="url(#g)"/><path d="m452.902344 905.765625h31.234375v31.234375h-31.234375zm0 0" fill="url(#e)"/><path d="m718.382812 62.464844v171.785156h31.234376v-171.785156c0-34.496094-27.96875-62.464844-62.464844-62.464844h-140.550782v31.234375h140.550782c17.25 0 31.230468 13.984375 31.230468 31.230469zm0 0" fill="url(#h)"/><path d="m484.132812 0h31.234376v31.234375h-31.234376zm0 0" fill="url(#i)"/><path d="m140.566406 140.550781h93.699219v31.234375h-93.699219zm0 0" fill="url(#j)"/><path d="m140.566406 203.015625h93.699219v31.234375h-93.699219zm0 0" fill="url(#j)"/><g fill="url(#k)"><path d="m499.75 140.550781h109.316406v31.234375h-109.316406zm0 0"/><path d="m499.75 203.015625h109.316406v31.234375h-109.316406zm0 0"/></g></svg>